<mxfile host="app.diagrams.net" modified="2021-01-07T14:50:04.642Z" agent="5.0 (Windows NT 10.0; Win64; x64) AppleWebKit/537.36 (KHTML, like Gecko) Chrome/87.0.4280.88 Safari/537.36" etag="GlWGz-rH1RTK2Jqrvvtn" version="14.1.8" type="github">
  <diagram name="Page-1" id="c4acf3e9-155e-7222-9cf6-157b1a14988f">
    <mxGraphModel dx="3750" dy="2218" grid="1" gridSize="10" guides="1" tooltips="1" connect="1" arrows="1" fold="1" page="0" pageScale="1" pageWidth="850" pageHeight="1100" background="#ffffff" math="0" shadow="0">
      <root>
        <mxCell id="0" />
        <mxCell id="1" parent="0" />
        <mxCell id="17acba5748e5396b-1" value="frame" style="shape=umlFrame;whiteSpace=wrap;html=1;rounded=0;shadow=0;comic=0;labelBackgroundColor=none;strokeWidth=1;fontFamily=Verdana;fontSize=10;align=center;" parent="1" vertex="1">
          <mxGeometry x="-980" y="-471" width="2225" height="1540" as="geometry" />
        </mxCell>
        <mxCell id="dzwy2O-CSNH0r0H0MtyH-51" value="&lt;p style=&quot;margin: 6px 0px 0px ; text-align: center&quot;&gt;&lt;b&gt;account icon&lt;/b&gt;&lt;/p&gt;&lt;hr&gt;&lt;p style=&quot;margin: 0px 0px 0px 8px&quot;&gt;&lt;br&gt;&lt;/p&gt;" style="align=left;overflow=fill;html=1;dropTarget=0;" vertex="1" parent="1">
          <mxGeometry x="370" y="-260" width="150" height="130" as="geometry" />
        </mxCell>
        <mxCell id="dzwy2O-CSNH0r0H0MtyH-52" value="" style="shape=component;jettyWidth=8;jettyHeight=4;" vertex="1" parent="dzwy2O-CSNH0r0H0MtyH-51">
          <mxGeometry x="1" width="20" height="20" relative="1" as="geometry">
            <mxPoint x="-24" y="4" as="offset" />
          </mxGeometry>
        </mxCell>
        <mxCell id="17acba5748e5396b-20" value="&lt;b&gt;Account&lt;/b&gt;" style="swimlane;html=1;fontStyle=0;childLayout=stackLayout;horizontal=1;startSize=26;fillColor=none;horizontalStack=0;resizeParent=1;resizeLast=0;collapsible=1;marginBottom=0;swimlaneFillColor=#ffffff;rounded=0;shadow=0;comic=0;labelBackgroundColor=none;strokeWidth=1;fontFamily=Verdana;fontSize=10;align=center;" parent="1" vertex="1">
          <mxGeometry x="80" y="-80" width="160" height="80" as="geometry">
            <mxRectangle x="350" y="42" width="100" height="26" as="alternateBounds" />
          </mxGeometry>
        </mxCell>
        <mxCell id="17acba5748e5396b-30" value="&lt;b&gt;App&lt;/b&gt;" style="swimlane;html=1;fontStyle=0;childLayout=stackLayout;horizontal=1;startSize=26;fillColor=none;horizontalStack=0;resizeParent=1;resizeLast=0;collapsible=1;marginBottom=0;swimlaneFillColor=#ffffff;rounded=0;shadow=0;comic=0;labelBackgroundColor=none;strokeWidth=1;fontFamily=Verdana;fontSize=10;align=center;" parent="1" vertex="1">
          <mxGeometry x="-265" y="-25" width="145" height="70" as="geometry" />
        </mxCell>
        <mxCell id="dzwy2O-CSNH0r0H0MtyH-1" value="&lt;b&gt;Router-Viewer&lt;/b&gt;" style="swimlane;html=1;fontStyle=0;childLayout=stackLayout;horizontal=1;startSize=26;fillColor=none;horizontalStack=0;resizeParent=1;resizeLast=0;collapsible=1;marginBottom=0;swimlaneFillColor=#ffffff;rounded=0;shadow=0;comic=0;labelBackgroundColor=none;strokeWidth=1;fontFamily=Verdana;fontSize=10;align=center;" vertex="1" parent="1">
          <mxGeometry x="-50" y="172" width="110" height="60" as="geometry">
            <mxRectangle x="350" y="42" width="100" height="26" as="alternateBounds" />
          </mxGeometry>
        </mxCell>
        <mxCell id="dzwy2O-CSNH0r0H0MtyH-21" value="&lt;b&gt;bottom&lt;/b&gt;" style="swimlane;html=1;fontStyle=0;childLayout=stackLayout;horizontal=1;startSize=26;fillColor=none;horizontalStack=0;resizeParent=1;resizeLast=0;collapsible=1;marginBottom=0;swimlaneFillColor=#ffffff;rounded=0;shadow=0;comic=0;labelBackgroundColor=none;strokeWidth=1;fontFamily=Verdana;fontSize=10;align=center;" vertex="1" parent="1">
          <mxGeometry x="-440" width="80" height="50" as="geometry">
            <mxRectangle x="350" y="42" width="100" height="26" as="alternateBounds" />
          </mxGeometry>
        </mxCell>
        <mxCell id="dzwy2O-CSNH0r0H0MtyH-35" value="" style="endArrow=open;endFill=1;endSize=12;html=1;exitX=0;exitY=0.5;exitDx=0;exitDy=0;entryX=1;entryY=0.5;entryDx=0;entryDy=0;" edge="1" parent="1" source="17acba5748e5396b-30" target="dzwy2O-CSNH0r0H0MtyH-21">
          <mxGeometry width="160" relative="1" as="geometry">
            <mxPoint x="370" y="170" as="sourcePoint" />
            <mxPoint x="530" y="170" as="targetPoint" />
            <Array as="points" />
          </mxGeometry>
        </mxCell>
        <mxCell id="dzwy2O-CSNH0r0H0MtyH-36" value="" style="endArrow=open;endFill=1;endSize=12;html=1;exitX=0.75;exitY=0;exitDx=0;exitDy=0;entryX=0;entryY=0.5;entryDx=0;entryDy=0;" edge="1" parent="1" source="17acba5748e5396b-30" target="17acba5748e5396b-20">
          <mxGeometry width="160" relative="1" as="geometry">
            <mxPoint x="370" y="170" as="sourcePoint" />
            <mxPoint x="530" y="170" as="targetPoint" />
          </mxGeometry>
        </mxCell>
        <mxCell id="dzwy2O-CSNH0r0H0MtyH-37" value="" style="endArrow=open;endFill=1;endSize=12;html=1;exitX=1;exitY=0.5;exitDx=0;exitDy=0;entryX=0;entryY=0.5;entryDx=0;entryDy=0;" edge="1" parent="1" source="17acba5748e5396b-30" target="dzwy2O-CSNH0r0H0MtyH-1">
          <mxGeometry width="160" relative="1" as="geometry">
            <mxPoint x="8.75" y="180" as="sourcePoint" />
            <mxPoint x="125" y="-10" as="targetPoint" />
          </mxGeometry>
        </mxCell>
        <mxCell id="dzwy2O-CSNH0r0H0MtyH-42" value="&lt;p style=&quot;margin: 0px ; margin-top: 6px ; text-align: center&quot;&gt;&lt;b&gt;Login&lt;/b&gt;&lt;/p&gt;&lt;hr&gt;&lt;p style=&quot;margin: 0px ; margin-left: 8px&quot;&gt;&lt;br&gt;&lt;/p&gt;" style="align=left;overflow=fill;html=1;dropTarget=0;" vertex="1" parent="1">
          <mxGeometry x="425" y="-30" width="130" height="40" as="geometry" />
        </mxCell>
        <mxCell id="dzwy2O-CSNH0r0H0MtyH-43" value="" style="shape=component;jettyWidth=8;jettyHeight=4;" vertex="1" parent="dzwy2O-CSNH0r0H0MtyH-42">
          <mxGeometry x="1" width="20" height="20" relative="1" as="geometry">
            <mxPoint x="-24" y="4" as="offset" />
          </mxGeometry>
        </mxCell>
        <mxCell id="dzwy2O-CSNH0r0H0MtyH-46" value="&lt;p style=&quot;margin: 0px ; margin-top: 6px ; text-align: center&quot;&gt;&lt;b&gt;register&lt;/b&gt;&lt;/p&gt;&lt;hr&gt;&lt;p style=&quot;margin: 0px ; margin-left: 8px&quot;&gt;&lt;br&gt;&lt;/p&gt;" style="align=left;overflow=fill;html=1;dropTarget=0;" vertex="1" parent="1">
          <mxGeometry x="425" y="-90" width="130" height="50" as="geometry" />
        </mxCell>
        <mxCell id="dzwy2O-CSNH0r0H0MtyH-47" value="" style="shape=component;jettyWidth=8;jettyHeight=4;" vertex="1" parent="dzwy2O-CSNH0r0H0MtyH-46">
          <mxGeometry x="1" width="20" height="20" relative="1" as="geometry">
            <mxPoint x="-24" y="4" as="offset" />
          </mxGeometry>
        </mxCell>
        <mxCell id="dzwy2O-CSNH0r0H0MtyH-48" value="&lt;p style=&quot;margin: 0px ; margin-top: 6px ; text-align: center&quot;&gt;&lt;b&gt;Profile&lt;/b&gt;&lt;/p&gt;&lt;hr&gt;&lt;p style=&quot;margin: 0px ; margin-left: 8px&quot;&gt;&lt;br&gt;&lt;/p&gt;" style="align=left;overflow=fill;html=1;dropTarget=0;" vertex="1" parent="1">
          <mxGeometry x="400" y="-210" width="90" height="50" as="geometry" />
        </mxCell>
        <mxCell id="dzwy2O-CSNH0r0H0MtyH-49" value="" style="shape=component;jettyWidth=8;jettyHeight=4;" vertex="1" parent="dzwy2O-CSNH0r0H0MtyH-48">
          <mxGeometry x="1" width="20" height="20" relative="1" as="geometry">
            <mxPoint x="-24" y="4" as="offset" />
          </mxGeometry>
        </mxCell>
        <mxCell id="dzwy2O-CSNH0r0H0MtyH-53" style="edgeStyle=orthogonalEdgeStyle;rounded=0;orthogonalLoop=1;jettySize=auto;html=1;exitX=0.5;exitY=1;exitDx=0;exitDy=0;" edge="1" parent="1" source="dzwy2O-CSNH0r0H0MtyH-48" target="dzwy2O-CSNH0r0H0MtyH-48">
          <mxGeometry relative="1" as="geometry" />
        </mxCell>
        <mxCell id="dzwy2O-CSNH0r0H0MtyH-64" value="Home" style="swimlane;fontStyle=1;childLayout=stackLayout;horizontal=1;startSize=21;fillColor=none;horizontalStack=0;resizeParent=1;resizeParentMax=0;resizeLast=0;collapsible=1;marginBottom=0;" vertex="1" parent="1">
          <mxGeometry x="280" y="160" width="140" height="52" as="geometry" />
        </mxCell>
        <mxCell id="dzwy2O-CSNH0r0H0MtyH-69" value="Search" style="swimlane;fontStyle=1;childLayout=stackLayout;horizontal=1;startSize=26;fillColor=none;horizontalStack=0;resizeParent=1;resizeParentMax=0;resizeLast=0;collapsible=1;marginBottom=0;" vertex="1" parent="1">
          <mxGeometry x="240" y="280" width="140" height="81" as="geometry" />
        </mxCell>
        <mxCell id="dzwy2O-CSNH0r0H0MtyH-70" value="Detail" style="swimlane;fontStyle=1;childLayout=stackLayout;horizontal=1;startSize=26;fillColor=none;horizontalStack=0;resizeParent=1;resizeParentMax=0;resizeLast=0;collapsible=1;marginBottom=0;" vertex="1" parent="1">
          <mxGeometry x="130" y="447" width="190" height="120" as="geometry" />
        </mxCell>
        <mxCell id="dzwy2O-CSNH0r0H0MtyH-71" value="Personal" style="swimlane;fontStyle=1;childLayout=stackLayout;horizontal=1;startSize=26;fillColor=none;horizontalStack=0;resizeParent=1;resizeParentMax=0;resizeLast=0;collapsible=1;marginBottom=0;" vertex="1" parent="1">
          <mxGeometry x="-120" y="447" width="210" height="135" as="geometry" />
        </mxCell>
        <mxCell id="dzwy2O-CSNH0r0H0MtyH-72" value="MessageBox" style="swimlane;fontStyle=1;childLayout=stackLayout;horizontal=1;startSize=26;fillColor=none;horizontalStack=0;resizeParent=1;resizeParentMax=0;resizeLast=0;collapsible=1;marginBottom=0;" vertex="1" parent="1">
          <mxGeometry x="-540" y="498" width="140" height="52" as="geometry" />
        </mxCell>
        <mxCell id="dzwy2O-CSNH0r0H0MtyH-74" value="Admin" style="swimlane;fontStyle=1;childLayout=stackLayout;horizontal=1;startSize=26;fillColor=none;horizontalStack=0;resizeParent=1;resizeParentMax=0;resizeLast=0;collapsible=1;marginBottom=0;" vertex="1" parent="1">
          <mxGeometry x="-710" y="498" width="140" height="52" as="geometry" />
        </mxCell>
        <mxCell id="dzwy2O-CSNH0r0H0MtyH-77" value="&lt;p style=&quot;margin: 0px ; margin-top: 6px ; text-align: center&quot;&gt;&lt;b&gt;SearchBar&lt;/b&gt;&lt;br&gt;&lt;/p&gt;&lt;hr&gt;&lt;p style=&quot;margin: 0px ; margin-left: 8px&quot;&gt;&lt;br&gt;&lt;/p&gt;" style="align=left;overflow=fill;html=1;dropTarget=0;" vertex="1" parent="1">
          <mxGeometry x="580" y="70" width="150" height="70" as="geometry" />
        </mxCell>
        <mxCell id="dzwy2O-CSNH0r0H0MtyH-78" value="" style="shape=component;jettyWidth=8;jettyHeight=4;" vertex="1" parent="dzwy2O-CSNH0r0H0MtyH-77">
          <mxGeometry x="1" width="20" height="20" relative="1" as="geometry">
            <mxPoint x="-24" y="4" as="offset" />
          </mxGeometry>
        </mxCell>
        <mxCell id="dzwy2O-CSNH0r0H0MtyH-79" value="&lt;p style=&quot;margin: 0px ; margin-top: 6px ; text-align: center&quot;&gt;&lt;b&gt;SearchItem&lt;/b&gt;&lt;br&gt;&lt;/p&gt;&lt;hr&gt;&lt;p style=&quot;margin: 0px ; margin-left: 8px&quot;&gt;&lt;br&gt;&lt;/p&gt;" style="align=left;overflow=fill;html=1;dropTarget=0;" vertex="1" parent="1">
          <mxGeometry x="650" y="250" width="120" height="50" as="geometry" />
        </mxCell>
        <mxCell id="dzwy2O-CSNH0r0H0MtyH-80" value="" style="shape=component;jettyWidth=8;jettyHeight=4;" vertex="1" parent="dzwy2O-CSNH0r0H0MtyH-79">
          <mxGeometry x="1" width="20" height="20" relative="1" as="geometry">
            <mxPoint x="-24" y="4" as="offset" />
          </mxGeometry>
        </mxCell>
        <mxCell id="dzwy2O-CSNH0r0H0MtyH-81" value="&lt;p style=&quot;margin: 0px ; margin-top: 6px ; text-align: center&quot;&gt;&lt;b&gt;FilterPopup&lt;/b&gt;&lt;/p&gt;&lt;hr&gt;&lt;p style=&quot;margin: 0px ; margin-left: 8px&quot;&gt;&lt;br&gt;&lt;/p&gt;" style="align=left;overflow=fill;html=1;dropTarget=0;" vertex="1" parent="1">
          <mxGeometry x="730" y="340" width="120" height="50" as="geometry" />
        </mxCell>
        <mxCell id="dzwy2O-CSNH0r0H0MtyH-82" value="" style="shape=component;jettyWidth=8;jettyHeight=4;" vertex="1" parent="dzwy2O-CSNH0r0H0MtyH-81">
          <mxGeometry x="1" width="20" height="20" relative="1" as="geometry">
            <mxPoint x="-24" y="4" as="offset" />
          </mxGeometry>
        </mxCell>
        <mxCell id="dzwy2O-CSNH0r0H0MtyH-83" value="&lt;p style=&quot;margin: 0px ; margin-top: 6px ; text-align: center&quot;&gt;&lt;b&gt;Bookinfo&lt;/b&gt;&lt;/p&gt;&lt;hr&gt;&lt;p style=&quot;margin: 0px ; margin-left: 8px&quot;&gt;&lt;br&gt;&lt;/p&gt;" style="align=left;overflow=fill;html=1;dropTarget=0;" vertex="1" parent="1">
          <mxGeometry x="470" y="380" width="120" height="50" as="geometry" />
        </mxCell>
        <mxCell id="dzwy2O-CSNH0r0H0MtyH-84" value="" style="shape=component;jettyWidth=8;jettyHeight=4;" vertex="1" parent="dzwy2O-CSNH0r0H0MtyH-83">
          <mxGeometry x="1" width="20" height="20" relative="1" as="geometry">
            <mxPoint x="-24" y="4" as="offset" />
          </mxGeometry>
        </mxCell>
        <mxCell id="dzwy2O-CSNH0r0H0MtyH-85" value="&lt;p style=&quot;margin: 0px ; margin-top: 6px ; text-align: center&quot;&gt;&lt;b&gt;comment&lt;/b&gt;&lt;/p&gt;&lt;hr&gt;&lt;p style=&quot;margin: 0px ; margin-left: 8px&quot;&gt;&lt;br&gt;&lt;/p&gt;" style="align=left;overflow=fill;html=1;dropTarget=0;" vertex="1" parent="1">
          <mxGeometry x="610" y="500" width="120" height="50" as="geometry" />
        </mxCell>
        <mxCell id="dzwy2O-CSNH0r0H0MtyH-86" value="" style="shape=component;jettyWidth=8;jettyHeight=4;" vertex="1" parent="dzwy2O-CSNH0r0H0MtyH-85">
          <mxGeometry x="1" width="20" height="20" relative="1" as="geometry">
            <mxPoint x="-24" y="4" as="offset" />
          </mxGeometry>
        </mxCell>
        <mxCell id="dzwy2O-CSNH0r0H0MtyH-87" value="&lt;p style=&quot;margin: 0px ; margin-top: 6px ; text-align: center&quot;&gt;&lt;b&gt;commentEditor&lt;/b&gt;&lt;/p&gt;&lt;hr&gt;&lt;p style=&quot;margin: 0px ; margin-left: 8px&quot;&gt;&lt;br&gt;&lt;/p&gt;" style="align=left;overflow=fill;html=1;dropTarget=0;" vertex="1" parent="1">
          <mxGeometry x="420" y="600" width="140" height="60" as="geometry" />
        </mxCell>
        <mxCell id="dzwy2O-CSNH0r0H0MtyH-88" value="" style="shape=component;jettyWidth=8;jettyHeight=4;" vertex="1" parent="dzwy2O-CSNH0r0H0MtyH-87">
          <mxGeometry x="1" width="20" height="20" relative="1" as="geometry">
            <mxPoint x="-24" y="4" as="offset" />
          </mxGeometry>
        </mxCell>
        <mxCell id="dzwy2O-CSNH0r0H0MtyH-90" value="" style="endArrow=open;endFill=1;endSize=12;html=1;exitX=1;exitY=0.5;exitDx=0;exitDy=0;entryX=0;entryY=0.5;entryDx=0;entryDy=0;" edge="1" parent="1" source="dzwy2O-CSNH0r0H0MtyH-1" target="dzwy2O-CSNH0r0H0MtyH-64">
          <mxGeometry width="160" relative="1" as="geometry">
            <mxPoint x="360" y="260" as="sourcePoint" />
            <mxPoint x="520" y="260" as="targetPoint" />
          </mxGeometry>
        </mxCell>
        <mxCell id="dzwy2O-CSNH0r0H0MtyH-96" value="book" style="html=1;" vertex="1" parent="1">
          <mxGeometry x="380" y="289" width="40" height="20" as="geometry" />
        </mxCell>
        <mxCell id="dzwy2O-CSNH0r0H0MtyH-106" value="oldFliterCondition" style="html=1;verticalAlign=bottom;endArrow=block;entryX=0;entryY=0.25;entryDx=0;entryDy=0;exitX=1;exitY=0.5;exitDx=0;exitDy=0;" edge="1" parent="1" source="dzwy2O-CSNH0r0H0MtyH-69" target="dzwy2O-CSNH0r0H0MtyH-81">
          <mxGeometry width="80" relative="1" as="geometry">
            <mxPoint x="420" y="280" as="sourcePoint" />
            <mxPoint x="750" y="260" as="targetPoint" />
          </mxGeometry>
        </mxCell>
        <mxCell id="dzwy2O-CSNH0r0H0MtyH-111" value="doi" style="html=1;" vertex="1" parent="1">
          <mxGeometry x="320" y="447" width="50" height="20" as="geometry" />
        </mxCell>
        <mxCell id="dzwy2O-CSNH0r0H0MtyH-119" value="comment, username" style="html=1;" vertex="1" parent="1">
          <mxGeometry x="320" y="467" width="130" height="20" as="geometry" />
        </mxCell>
        <mxCell id="dzwy2O-CSNH0r0H0MtyH-122" value="refresh" style="html=1;verticalAlign=bottom;startArrow=oval;startFill=1;endArrow=block;startSize=8;exitX=0;exitY=0.5;exitDx=0;exitDy=0;" edge="1" parent="1" source="dzwy2O-CSNH0r0H0MtyH-85">
          <mxGeometry width="60" relative="1" as="geometry">
            <mxPoint x="670" y="421" as="sourcePoint" />
            <mxPoint x="320" y="525" as="targetPoint" />
          </mxGeometry>
        </mxCell>
        <mxCell id="dzwy2O-CSNH0r0H0MtyH-123" value="goToPage" style="html=1;verticalAlign=bottom;startArrow=oval;startFill=1;endArrow=block;startSize=8;exitX=0;exitY=0.75;exitDx=0;exitDy=0;entryX=1;entryY=0;entryDx=0;entryDy=0;" edge="1" parent="1" source="dzwy2O-CSNH0r0H0MtyH-77" target="dzwy2O-CSNH0r0H0MtyH-69">
          <mxGeometry width="60" relative="1" as="geometry">
            <mxPoint x="410" y="260" as="sourcePoint" />
            <mxPoint x="470" y="260" as="targetPoint" />
          </mxGeometry>
        </mxCell>
        <mxCell id="dzwy2O-CSNH0r0H0MtyH-124" value="fliter" style="html=1;verticalAlign=bottom;startArrow=oval;startFill=1;endArrow=block;startSize=8;exitX=0;exitY=0.75;exitDx=0;exitDy=0;entryX=1;entryY=0.75;entryDx=0;entryDy=0;" edge="1" parent="1" source="dzwy2O-CSNH0r0H0MtyH-81" target="dzwy2O-CSNH0r0H0MtyH-69">
          <mxGeometry width="60" relative="1" as="geometry">
            <mxPoint x="410" y="170" as="sourcePoint" />
            <mxPoint x="470" y="170" as="targetPoint" />
          </mxGeometry>
        </mxCell>
        <mxCell id="dzwy2O-CSNH0r0H0MtyH-125" value="" style="endArrow=diamondThin;endFill=1;endSize=24;html=1;entryX=1;entryY=0.25;entryDx=0;entryDy=0;exitX=0;exitY=0.25;exitDx=0;exitDy=0;" edge="1" parent="1" source="dzwy2O-CSNH0r0H0MtyH-77" target="dzwy2O-CSNH0r0H0MtyH-64">
          <mxGeometry width="160" relative="1" as="geometry">
            <mxPoint x="360" y="170" as="sourcePoint" />
            <mxPoint x="520" y="170" as="targetPoint" />
          </mxGeometry>
        </mxCell>
        <mxCell id="dzwy2O-CSNH0r0H0MtyH-126" value="" style="endArrow=diamondThin;endFill=1;endSize=24;html=1;entryX=1;entryY=0.75;entryDx=0;entryDy=0;exitX=0;exitY=0.5;exitDx=0;exitDy=0;" edge="1" parent="1" source="dzwy2O-CSNH0r0H0MtyH-42" target="17acba5748e5396b-20">
          <mxGeometry width="160" relative="1" as="geometry">
            <mxPoint x="360" y="170" as="sourcePoint" />
            <mxPoint x="520" y="170" as="targetPoint" />
          </mxGeometry>
        </mxCell>
        <mxCell id="dzwy2O-CSNH0r0H0MtyH-127" value="" style="endArrow=diamondThin;endFill=1;endSize=24;html=1;entryX=1;entryY=0.5;entryDx=0;entryDy=0;exitX=0;exitY=0.5;exitDx=0;exitDy=0;" edge="1" parent="1" source="dzwy2O-CSNH0r0H0MtyH-46" target="17acba5748e5396b-20">
          <mxGeometry width="160" relative="1" as="geometry">
            <mxPoint x="360" y="170" as="sourcePoint" />
            <mxPoint x="520" y="170" as="targetPoint" />
          </mxGeometry>
        </mxCell>
        <mxCell id="dzwy2O-CSNH0r0H0MtyH-128" value="" style="endArrow=open;endFill=1;endSize=12;html=1;exitX=1;exitY=0.75;exitDx=0;exitDy=0;entryX=0;entryY=0.5;entryDx=0;entryDy=0;" edge="1" parent="1" source="dzwy2O-CSNH0r0H0MtyH-1" target="dzwy2O-CSNH0r0H0MtyH-69">
          <mxGeometry width="160" relative="1" as="geometry">
            <mxPoint x="360" y="450" as="sourcePoint" />
            <mxPoint x="520" y="450" as="targetPoint" />
          </mxGeometry>
        </mxCell>
        <mxCell id="dzwy2O-CSNH0r0H0MtyH-129" value="" style="endArrow=open;endFill=1;endSize=12;html=1;exitX=0.5;exitY=1;exitDx=0;exitDy=0;entryX=0.307;entryY=0.008;entryDx=0;entryDy=0;entryPerimeter=0;" edge="1" parent="1" source="dzwy2O-CSNH0r0H0MtyH-1" target="dzwy2O-CSNH0r0H0MtyH-70">
          <mxGeometry width="160" relative="1" as="geometry">
            <mxPoint x="360" y="450" as="sourcePoint" />
            <mxPoint x="190" y="390" as="targetPoint" />
          </mxGeometry>
        </mxCell>
        <mxCell id="dzwy2O-CSNH0r0H0MtyH-134" value="" style="endArrow=none;html=1;edgeStyle=orthogonalEdgeStyle;exitX=1;exitY=0.75;exitDx=0;exitDy=0;entryX=0;entryY=0.25;entryDx=0;entryDy=0;" edge="1" parent="1" source="dzwy2O-CSNH0r0H0MtyH-119" target="dzwy2O-CSNH0r0H0MtyH-85">
          <mxGeometry relative="1" as="geometry">
            <mxPoint x="360" y="360" as="sourcePoint" />
            <mxPoint x="520" y="360" as="targetPoint" />
          </mxGeometry>
        </mxCell>
        <mxCell id="dzwy2O-CSNH0r0H0MtyH-135" value="1" style="edgeLabel;resizable=0;html=1;align=left;verticalAlign=bottom;" connectable="0" vertex="1" parent="dzwy2O-CSNH0r0H0MtyH-134">
          <mxGeometry x="-1" relative="1" as="geometry" />
        </mxCell>
        <mxCell id="dzwy2O-CSNH0r0H0MtyH-136" value="0..n" style="edgeLabel;resizable=0;html=1;align=right;verticalAlign=bottom;" connectable="0" vertex="1" parent="dzwy2O-CSNH0r0H0MtyH-134">
          <mxGeometry x="1" relative="1" as="geometry" />
        </mxCell>
        <mxCell id="dzwy2O-CSNH0r0H0MtyH-138" value="" style="endArrow=none;html=1;edgeStyle=orthogonalEdgeStyle;entryX=0;entryY=0.5;entryDx=0;entryDy=0;" edge="1" parent="1" target="dzwy2O-CSNH0r0H0MtyH-83">
          <mxGeometry relative="1" as="geometry">
            <mxPoint x="370" y="455" as="sourcePoint" />
            <mxPoint x="520" y="360" as="targetPoint" />
          </mxGeometry>
        </mxCell>
        <mxCell id="dzwy2O-CSNH0r0H0MtyH-141" value="doi, username,title" style="html=1;" vertex="1" parent="1">
          <mxGeometry x="320" y="547" width="130" height="20" as="geometry" />
        </mxCell>
        <mxCell id="dzwy2O-CSNH0r0H0MtyH-143" value="" style="endArrow=none;html=1;edgeStyle=orthogonalEdgeStyle;exitX=1;exitY=0.25;exitDx=0;exitDy=0;entryX=0.5;entryY=0;entryDx=0;entryDy=0;" edge="1" parent="1" source="dzwy2O-CSNH0r0H0MtyH-141" target="dzwy2O-CSNH0r0H0MtyH-87">
          <mxGeometry relative="1" as="geometry">
            <mxPoint x="360" y="360" as="sourcePoint" />
            <mxPoint x="520" y="360" as="targetPoint" />
          </mxGeometry>
        </mxCell>
        <mxCell id="dzwy2O-CSNH0r0H0MtyH-146" value="submit" style="html=1;verticalAlign=bottom;endArrow=block;exitX=0;exitY=0.75;exitDx=0;exitDy=0;" edge="1" parent="1" source="dzwy2O-CSNH0r0H0MtyH-87">
          <mxGeometry width="80" relative="1" as="geometry">
            <mxPoint x="400" y="360" as="sourcePoint" />
            <mxPoint x="290" y="567" as="targetPoint" />
          </mxGeometry>
        </mxCell>
        <mxCell id="dzwy2O-CSNH0r0H0MtyH-152" value="" style="endArrow=none;html=1;edgeStyle=orthogonalEdgeStyle;exitX=1;exitY=0.5;exitDx=0;exitDy=0;entryX=0;entryY=0.5;entryDx=0;entryDy=0;rounded=0;" edge="1" parent="1" source="dzwy2O-CSNH0r0H0MtyH-96" target="dzwy2O-CSNH0r0H0MtyH-79">
          <mxGeometry relative="1" as="geometry">
            <mxPoint x="450" y="250" as="sourcePoint" />
            <mxPoint x="610" y="250" as="targetPoint" />
            <Array as="points">
              <mxPoint x="580" y="299" />
              <mxPoint x="580" y="275" />
            </Array>
          </mxGeometry>
        </mxCell>
        <mxCell id="dzwy2O-CSNH0r0H0MtyH-153" value="1" style="edgeLabel;resizable=0;html=1;align=left;verticalAlign=bottom;" connectable="0" vertex="1" parent="dzwy2O-CSNH0r0H0MtyH-152">
          <mxGeometry x="-1" relative="1" as="geometry" />
        </mxCell>
        <mxCell id="dzwy2O-CSNH0r0H0MtyH-154" value="0..n" style="edgeLabel;resizable=0;html=1;align=right;verticalAlign=bottom;" connectable="0" vertex="1" parent="dzwy2O-CSNH0r0H0MtyH-152">
          <mxGeometry x="1" relative="1" as="geometry" />
        </mxCell>
        <mxCell id="dzwy2O-CSNH0r0H0MtyH-160" value="&lt;p style=&quot;margin: 0px ; margin-top: 6px ; text-align: center&quot;&gt;&lt;br&gt;&lt;/p&gt;&lt;p style=&quot;margin: 0px ; margin-top: 6px ; text-align: center&quot;&gt;&lt;b&gt;commentList&lt;/b&gt;&lt;/p&gt;" style="align=left;overflow=fill;html=1;dropTarget=0;" vertex="1" parent="1">
          <mxGeometry x="-20" y="502.5" width="100" height="70" as="geometry" />
        </mxCell>
        <mxCell id="dzwy2O-CSNH0r0H0MtyH-161" value="" style="shape=component;jettyWidth=8;jettyHeight=4;" vertex="1" parent="dzwy2O-CSNH0r0H0MtyH-160">
          <mxGeometry x="1" width="20" height="20" relative="1" as="geometry">
            <mxPoint x="-24" y="4" as="offset" />
          </mxGeometry>
        </mxCell>
        <mxCell id="dzwy2O-CSNH0r0H0MtyH-162" value="&lt;p style=&quot;margin: 0px ; margin-top: 6px ; text-align: center&quot;&gt;&lt;br&gt;&lt;/p&gt;&lt;p style=&quot;margin: 0px ; margin-top: 6px ; text-align: center&quot;&gt;&lt;b&gt;Role&lt;/b&gt;&lt;/p&gt;" style="align=left;overflow=fill;html=1;dropTarget=0;" vertex="1" parent="1">
          <mxGeometry x="-100" y="502.5" width="75" height="70" as="geometry" />
        </mxCell>
        <mxCell id="dzwy2O-CSNH0r0H0MtyH-163" value="" style="shape=component;jettyWidth=8;jettyHeight=4;" vertex="1" parent="dzwy2O-CSNH0r0H0MtyH-162">
          <mxGeometry x="1" width="20" height="20" relative="1" as="geometry">
            <mxPoint x="-24" y="4" as="offset" />
          </mxGeometry>
        </mxCell>
        <mxCell id="dzwy2O-CSNH0r0H0MtyH-171" value="Reviewer" style="swimlane;fontStyle=1;childLayout=stackLayout;horizontal=1;startSize=26;fillColor=none;horizontalStack=0;resizeParent=1;resizeParentMax=0;resizeLast=0;collapsible=1;marginBottom=0;" vertex="1" parent="1">
          <mxGeometry x="-365" y="454" width="210" height="135" as="geometry" />
        </mxCell>
        <mxCell id="dzwy2O-CSNH0r0H0MtyH-172" value="&lt;p style=&quot;margin: 0px ; margin-top: 6px ; text-align: center&quot;&gt;&lt;br&gt;&lt;/p&gt;&lt;p style=&quot;margin: 0px ; margin-top: 6px ; text-align: center&quot;&gt;&lt;b&gt;Feedback&lt;/b&gt;&lt;/p&gt;" style="align=left;overflow=fill;html=1;dropTarget=0;" vertex="1" parent="1">
          <mxGeometry x="-265" y="499" width="100" height="70" as="geometry" />
        </mxCell>
        <mxCell id="dzwy2O-CSNH0r0H0MtyH-173" value="" style="shape=component;jettyWidth=8;jettyHeight=4;" vertex="1" parent="dzwy2O-CSNH0r0H0MtyH-172">
          <mxGeometry x="1" width="20" height="20" relative="1" as="geometry">
            <mxPoint x="-24" y="4" as="offset" />
          </mxGeometry>
        </mxCell>
        <mxCell id="dzwy2O-CSNH0r0H0MtyH-174" value="&lt;p style=&quot;margin: 0px ; margin-top: 6px ; text-align: center&quot;&gt;&lt;br&gt;&lt;/p&gt;&lt;p style=&quot;margin: 0px ; margin-top: 6px ; text-align: center&quot;&gt;&lt;b&gt;PID&lt;/b&gt;&lt;/p&gt;" style="align=left;overflow=fill;html=1;dropTarget=0;" vertex="1" parent="1">
          <mxGeometry x="-345" y="499" width="75" height="70" as="geometry" />
        </mxCell>
        <mxCell id="dzwy2O-CSNH0r0H0MtyH-175" value="" style="shape=component;jettyWidth=8;jettyHeight=4;" vertex="1" parent="dzwy2O-CSNH0r0H0MtyH-174">
          <mxGeometry x="1" width="20" height="20" relative="1" as="geometry">
            <mxPoint x="-24" y="4" as="offset" />
          </mxGeometry>
        </mxCell>
        <mxCell id="dzwy2O-CSNH0r0H0MtyH-176" value="" style="endArrow=open;endFill=1;endSize=12;html=1;strokeColor=#000000;exitX=0.5;exitY=1;exitDx=0;exitDy=0;entryX=0.5;entryY=0;entryDx=0;entryDy=0;" edge="1" parent="1" source="dzwy2O-CSNH0r0H0MtyH-1" target="dzwy2O-CSNH0r0H0MtyH-71">
          <mxGeometry width="160" relative="1" as="geometry">
            <mxPoint x="180" y="470" as="sourcePoint" />
            <mxPoint x="20" y="470" as="targetPoint" />
          </mxGeometry>
        </mxCell>
        <mxCell id="dzwy2O-CSNH0r0H0MtyH-177" value="" style="endArrow=open;endFill=1;endSize=12;html=1;strokeColor=#000000;exitX=0.5;exitY=1;exitDx=0;exitDy=0;entryX=0.5;entryY=0;entryDx=0;entryDy=0;" edge="1" parent="1" source="dzwy2O-CSNH0r0H0MtyH-1" target="dzwy2O-CSNH0r0H0MtyH-171">
          <mxGeometry width="160" relative="1" as="geometry">
            <mxPoint x="20" y="470" as="sourcePoint" />
            <mxPoint x="180" y="470" as="targetPoint" />
          </mxGeometry>
        </mxCell>
        <mxCell id="dzwy2O-CSNH0r0H0MtyH-178" value="" style="endArrow=open;endFill=1;endSize=12;html=1;strokeColor=#000000;exitX=0.5;exitY=1;exitDx=0;exitDy=0;entryX=0.5;entryY=0;entryDx=0;entryDy=0;" edge="1" parent="1" source="dzwy2O-CSNH0r0H0MtyH-1" target="dzwy2O-CSNH0r0H0MtyH-72">
          <mxGeometry width="160" relative="1" as="geometry">
            <mxPoint x="20" y="470" as="sourcePoint" />
            <mxPoint x="180" y="470" as="targetPoint" />
          </mxGeometry>
        </mxCell>
        <mxCell id="dzwy2O-CSNH0r0H0MtyH-179" value="" style="endArrow=open;endFill=1;endSize=12;html=1;strokeColor=#000000;exitX=0.5;exitY=1;exitDx=0;exitDy=0;entryX=0.5;entryY=0;entryDx=0;entryDy=0;" edge="1" parent="1" source="dzwy2O-CSNH0r0H0MtyH-1" target="dzwy2O-CSNH0r0H0MtyH-74">
          <mxGeometry width="160" relative="1" as="geometry">
            <mxPoint x="20" y="470" as="sourcePoint" />
            <mxPoint x="180" y="470" as="targetPoint" />
          </mxGeometry>
        </mxCell>
        <mxCell id="dzwy2O-CSNH0r0H0MtyH-180" value="username" style="html=1;" vertex="1" parent="1">
          <mxGeometry x="240" y="-80" width="90" height="20" as="geometry" />
        </mxCell>
        <mxCell id="dzwy2O-CSNH0r0H0MtyH-181" value="" style="endArrow=none;html=1;edgeStyle=orthogonalEdgeStyle;strokeColor=#000000;exitX=1;exitY=0.75;exitDx=0;exitDy=0;entryX=-0.013;entryY=0.622;entryDx=0;entryDy=0;entryPerimeter=0;" edge="1" parent="1" source="dzwy2O-CSNH0r0H0MtyH-180" target="dzwy2O-CSNH0r0H0MtyH-51">
          <mxGeometry relative="1" as="geometry">
            <mxPoint x="370" y="80" as="sourcePoint" />
            <mxPoint x="530" y="80" as="targetPoint" />
            <Array as="points">
              <mxPoint x="340" y="-65" />
              <mxPoint x="340" y="-179" />
            </Array>
          </mxGeometry>
        </mxCell>
      </root>
    </mxGraphModel>
  </diagram>
</mxfile>
